<svg width="94" height="41" viewBox="0 0 94 41" fill="none" xmlns="http://www.w3.org/2000/svg">
<path d="M0.919823 1.61616H7.13605L14.5688 15.0574H14.8655L22.2983 1.61616H28.5145L17.4618 20.6654V32H11.9725V20.6654L0.919823 1.61616ZM42.5307 9.21212V12.1793H30.7214V9.21212H42.5307ZM34.1633 3.75252H37.6645V25.4722C37.6645 26.4613 37.808 27.2031 38.0948 27.6976C38.3915 28.1822 38.7673 28.5086 39.2223 28.6768C39.6872 28.835 40.1767 28.9141 40.6911 28.9141C41.0768 28.9141 41.3933 28.8944 41.6405 28.8548C41.8878 28.8053 42.0856 28.7658 42.234 28.7361L42.9461 31.8813C42.7087 31.9703 42.3774 32.0593 41.9521 32.1484C41.5268 32.2473 40.9878 32.2967 40.335 32.2967C39.3459 32.2967 38.3767 32.0841 37.4272 31.6588C36.4876 31.2335 35.7062 30.5856 35.0831 29.7153C34.4699 28.8449 34.1633 27.7471 34.1633 26.4217V3.75252ZM47.7974 32V9.21212H51.18V12.654H51.4174C51.8328 11.5265 52.5845 10.6116 53.6724 9.9094C54.7604 9.20717 55.9868 8.85606 57.3517 8.85606C57.6089 8.85606 57.9303 8.861 58.3161 8.87089C58.7018 8.88079 58.9936 8.89562 59.1914 8.9154V12.476C59.0727 12.4463 58.8007 12.4018 58.3754 12.3425C57.96 12.2733 57.5199 12.2386 57.055 12.2386C55.9473 12.2386 54.9582 12.4711 54.0878 12.9359C53.2274 13.3909 52.5449 14.0239 52.0405 14.8349C51.546 15.636 51.2987 16.5509 51.2987 17.5795V32H47.7974ZM63.3417 32V9.21212H66.843V32H63.3417ZM65.122 5.41414C64.4396 5.41414 63.8511 5.18171 63.3565 4.71685C62.8719 4.252 62.6296 3.69318 62.6296 3.0404C62.6296 2.38763 62.8719 1.82881 63.3565 1.36395C63.8511 0.899094 64.4396 0.666666 65.122 0.666666C65.8045 0.666666 66.388 0.899094 66.8726 1.36395C67.3672 1.82881 67.6144 2.38763 67.6144 3.0404C67.6144 3.69318 67.3672 4.252 66.8726 4.71685C66.388 5.18171 65.8045 5.41414 65.122 5.41414ZM73.2558 40.5455V9.21212H76.6383V12.8321H77.0537C77.3109 12.4364 77.667 11.932 78.1219 11.3188C78.5868 10.6957 79.2494 10.1418 80.1099 9.6572C80.9803 9.16267 82.1573 8.9154 83.6409 8.9154C85.5596 8.9154 87.2509 9.3951 88.7147 10.3545C90.1785 11.3139 91.3209 12.6738 92.1418 14.4343C92.9627 16.1949 93.3732 18.2719 93.3732 20.6654C93.3732 23.0787 92.9627 25.1706 92.1418 26.941C91.3209 28.7015 90.1835 30.0664 88.7296 31.0357C87.2756 31.9951 85.5992 32.4747 83.7002 32.4747C82.2364 32.4747 81.0644 32.2324 80.1841 31.7478C79.3038 31.2533 78.6263 30.6944 78.1516 30.0713C77.6768 29.4383 77.3109 28.9141 77.0537 28.4987H76.757V40.5455H73.2558ZM76.6977 20.6061C76.6977 22.327 76.9499 23.8452 77.4543 25.1607C77.9587 26.4662 78.6956 27.4899 79.6649 28.2317C80.6341 28.9636 81.821 29.3295 83.2255 29.3295C84.6893 29.3295 85.9108 28.9438 86.8899 28.1723C87.879 27.391 88.6208 26.3426 89.1153 25.0271C89.6197 23.7018 89.8719 22.2281 89.8719 20.6061C89.8719 19.0038 89.6247 17.5598 89.1301 16.274C88.6455 14.9783 87.9086 13.9546 86.9196 13.203C85.9404 12.4414 84.709 12.0606 83.2255 12.0606C81.8012 12.0606 80.6045 12.4216 79.6352 13.1436C78.6659 13.8557 77.934 14.8547 77.4395 16.1405C76.9449 17.4163 76.6977 18.9049 76.6977 20.6061Z" fill="black"/>
</svg>
