<svg width="70" height="31" viewBox="0 0 70 31" fill="none" xmlns="http://www.w3.org/2000/svg">
<path d="M0.812263 0.895622H4.01619L10.424 11.6807H10.6948L17.1027 0.895622H20.3066L11.9583 14.4785V24H9.16052V14.4785L0.812263 0.895622ZM31.1001 6.67172V8.928H22.1201V6.67172H31.1001ZM24.7374 2.52015H27.3998V19.0362C27.3998 19.7883 27.5088 20.3523 27.7269 20.7284C27.9526 21.0969 28.2384 21.3451 28.5843 21.473C28.9378 21.5933 29.3101 21.6535 29.7012 21.6535C29.9945 21.6535 30.2352 21.6384 30.4232 21.6083C30.6112 21.5707 30.7617 21.5406 30.8745 21.5181L31.416 23.9097C31.2355 23.9774 30.9835 24.0451 30.6601 24.1128C30.3367 24.188 29.9268 24.2256 29.4304 24.2256C28.6783 24.2256 27.9413 24.0639 27.2193 23.7405C26.5048 23.4171 25.9106 22.9245 25.4368 22.2627C24.9705 21.6008 24.7374 20.766 24.7374 19.7582V2.52015ZM35.105 24V6.67172H37.6772V9.28901H37.8577C38.1736 8.43162 38.7451 7.73593 39.5725 7.20194C40.3998 6.66796 41.3324 6.40096 42.3702 6.40096C42.5658 6.40096 42.8102 6.40472 43.1035 6.41224C43.3969 6.41976 43.6187 6.43105 43.7691 6.44609V9.15363C43.6789 9.13107 43.4721 9.09722 43.1487 9.0521C42.8328 8.99945 42.4981 8.97313 42.1446 8.97313C41.3023 8.97313 40.5502 9.14987 39.8883 9.50336C39.234 9.84932 38.7151 10.3307 38.3315 10.9474C37.9554 11.5566 37.7674 12.2523 37.7674 13.0344V24H35.105ZM46.9251 24V6.67172H49.5875V24H46.9251ZM48.2789 3.78367C47.76 3.78367 47.3125 3.60693 46.9364 3.25344C46.5679 2.89996 46.3836 2.47502 46.3836 1.97864C46.3836 1.48226 46.5679 1.05732 46.9364 0.703838C47.3125 0.350353 47.76 0.173611 48.2789 0.173611C48.7978 0.173611 49.2416 0.350353 49.6101 0.703838C49.9862 1.05732 50.1742 1.48226 50.1742 1.97864C50.1742 2.47502 49.9862 2.89996 49.6101 3.25344C49.2416 3.60693 48.7978 3.78367 48.2789 3.78367ZM54.4639 30.4981V6.67172H57.0361V9.42439H57.352C57.5475 9.12355 57.8183 8.73998 58.1643 8.27368C58.5177 7.79986 59.0216 7.37869 59.676 7.01016C60.3378 6.63411 61.2328 6.44609 62.3609 6.44609C63.82 6.44609 65.1061 6.81085 66.2192 7.54039C67.3323 8.26992 68.201 9.30405 68.8252 10.6428C69.4494 11.9815 69.7616 13.5609 69.7616 15.381C69.7616 17.2161 69.4494 18.8068 68.8252 20.153C68.201 21.4918 67.3361 22.5297 66.2305 23.2667C65.1249 23.9962 63.8501 24.361 62.4061 24.361C61.293 24.361 60.4017 24.1767 59.7324 23.8082C59.063 23.4322 58.5478 23.0072 58.1868 22.5334C57.8258 22.0521 57.5475 21.6535 57.352 21.3376H57.1264V30.4981H54.4639ZM57.0812 15.3359C57.0812 16.6445 57.273 17.799 57.6566 18.7993C58.0402 19.792 58.6005 20.5704 59.3375 21.1345C60.0746 21.6911 60.9771 21.9693 62.0451 21.9693C63.1582 21.9693 64.087 21.676 64.8316 21.0894C65.5837 20.4952 66.1477 19.698 66.5238 18.6977C66.9074 17.6899 67.0991 16.5693 67.0991 15.3359C67.0991 14.1175 66.9111 13.0194 66.5351 12.0417C66.1666 11.0564 65.6062 10.278 64.8541 9.70642C64.1096 9.12731 63.1732 8.83775 62.0451 8.83775C60.962 8.83775 60.052 9.11227 59.315 9.6613C58.5779 10.2028 58.0214 10.9624 57.6453 11.9401C57.2693 12.9103 57.0812 14.0423 57.0812 15.3359Z" fill="white"/>
</svg>
