<svg width="44" height="44" viewBox="0 0 44 44" fill="none" xmlns="http://www.w3.org/2000/svg">
<rect x="0.5" y="0.5" width="43" height="43" stroke="white"/>
<path d="M8.03977 19V5H9.25977L15.6598 15.92H15.0198L21.3598 5H22.5798V19H21.1598V7.22H21.4998L15.6598 17.22H14.9598L9.07977 7.22H9.45977V19H8.03977ZM28.4613 11.26H35.8613V12.52H28.4613V11.26ZM28.6213 17.72H37.0413V19H27.1413V5H36.7413V6.28H28.6213V17.72ZM8.22531 40V26H9.44531L19.1053 38.16H18.4653V26H19.9253V40H18.7053L9.06531 27.84H9.70531V40H8.22531ZM30.1348 40.12C28.3482 40.12 26.9415 39.6067 25.9148 38.58C24.8882 37.5533 24.3748 36.0333 24.3748 34.02V26H25.8548V33.96C25.8548 35.6133 26.2282 36.8333 26.9748 37.62C27.7215 38.4067 28.7748 38.8 30.1348 38.8C31.5082 38.8 32.5682 38.4067 33.3148 37.62C34.0615 36.8333 34.4348 35.6133 34.4348 33.96V26H35.8748V34.02C35.8748 36.0333 35.3615 37.5533 34.3348 38.58C33.3215 39.6067 31.9215 40.12 30.1348 40.12Z" fill="white"/>
</svg>
