<svg width="32" height="32" viewBox="0 0 32 32" fill="none" xmlns="http://www.w3.org/2000/svg">
<g clip-path="url(#clip0_16_620)">
<path d="M6.5914 13.4265C6.98183 10.9724 10.0494 8.351 12.4477 8.29522C12.6151 8.29522 12.7824 8.23945 12.8939 8.1279C13.0055 8.07213 13.117 8.01635 13.1728 7.84903C14.0094 6.28734 13.5632 5.0603 12.1689 4.05636C10.5514 2.88509 7.98577 4.05636 6.70295 5.11607C3.46803 7.79325 0.177334 12.4224 0.344658 16.8287C-0.213088 19.7849 -0.101539 22.9639 0.735079 25.5853C1.29282 27.2586 2.91029 28.0952 4.58352 28.2067C6.25676 28.3184 9.71478 28.8202 11.2207 27.8164C12.7266 26.8124 12.8382 24.8603 13.0055 23.1871C13.1728 21.3466 13.6748 17.8884 12.1131 16.4383C10.5514 15.0439 6.08943 16.5499 6.5914 13.4265Z" fill="#E2E8FB"/>
<path d="M24.9972 13.4265C25.3876 10.9724 28.4551 8.351 30.8535 8.29522C31.0208 8.29522 31.1881 8.23945 31.2997 8.1279C31.4113 8.07213 31.5228 8.01635 31.5787 7.84903C32.4153 6.28734 31.9691 5.0603 30.5747 4.05636C28.9573 2.88509 26.3916 4.05636 25.1087 5.11607C21.8738 7.79325 18.5831 12.4225 18.7504 16.8287C18.1927 19.7849 18.3042 22.9639 19.1408 25.5853C19.6985 27.2586 21.316 28.0952 22.9893 28.2067C24.6625 28.3184 28.1205 28.8202 29.6265 27.8164C31.1323 26.8124 31.2439 24.8603 31.4112 23.1871C31.5786 21.3466 32.0805 17.8884 30.5189 16.4383C28.9572 15.0439 24.4394 16.5499 24.9972 13.4265Z" fill="#E2E8FB"/>
</g>
<defs>
<clipPath id="clip0_16_620">
<rect width="32" height="32" fill="white"/>
</clipPath>
</defs>
</svg>
